<mxfile host="app.diagrams.net" modified="2023-07-06T15:26:39.232Z" agent="Mozilla/5.0 (Windows NT 10.0; Win64; x64) AppleWebKit/537.36 (KHTML, like Gecko) Chrome/114.0.0.0 Safari/537.36" etag="3odrv9AOyWiZ203kmLEE" version="21.6.1" type="github">
  <diagram name="페이지-1" id="E4qmCuvCTGi5spzyAYU5">
    <mxGraphModel dx="1195" dy="657" grid="1" gridSize="10" guides="1" tooltips="1" connect="1" arrows="1" fold="1" page="1" pageScale="1" pageWidth="827" pageHeight="1169" math="0" shadow="0">
      <root>
        <mxCell id="0" />
        <mxCell id="1" parent="0" />
        <mxCell id="cChP4VPMFdmE6u7nBhSx-1" value="이용자" style="shape=umlActor;verticalLabelPosition=bottom;verticalAlign=top;html=1;" vertex="1" parent="1">
          <mxGeometry x="30" y="430" width="30" height="60" as="geometry" />
        </mxCell>
        <mxCell id="cChP4VPMFdmE6u7nBhSx-2" value="게시판 서비스" style="shape=umlFrame;whiteSpace=wrap;html=1;pointerEvents=0;width=110;height=20;" vertex="1" parent="1">
          <mxGeometry x="120" y="280" width="600" height="630" as="geometry" />
        </mxCell>
        <mxCell id="cChP4VPMFdmE6u7nBhSx-15" style="rounded=0;orthogonalLoop=1;jettySize=auto;html=1;exitX=0;exitY=0.5;exitDx=0;exitDy=0;entryX=1;entryY=0.3333333333333333;entryDx=0;entryDy=0;entryPerimeter=0;horizontal=1;endArrow=none;endFill=0;" edge="1" parent="1" source="cChP4VPMFdmE6u7nBhSx-3" target="cChP4VPMFdmE6u7nBhSx-1">
          <mxGeometry relative="1" as="geometry" />
        </mxCell>
        <mxCell id="cChP4VPMFdmE6u7nBhSx-3" value="회원 가입" style="rounded=1;whiteSpace=wrap;html=1;arcSize=40;fontColor=#000000;fillColor=#ffffc0;strokeColor=#ff0000;fontStyle=1" vertex="1" parent="1">
          <mxGeometry x="160" y="420" width="120" height="40" as="geometry" />
        </mxCell>
        <mxCell id="cChP4VPMFdmE6u7nBhSx-18" style="rounded=0;orthogonalLoop=1;jettySize=auto;html=1;endArrow=none;endFill=0;" edge="1" parent="1" source="cChP4VPMFdmE6u7nBhSx-5">
          <mxGeometry relative="1" as="geometry">
            <mxPoint x="60" y="450" as="targetPoint" />
          </mxGeometry>
        </mxCell>
        <mxCell id="cChP4VPMFdmE6u7nBhSx-22" style="rounded=0;orthogonalLoop=1;jettySize=auto;html=1;entryX=0.5;entryY=1;entryDx=0;entryDy=0;dashed=1;" edge="1" parent="1" source="cChP4VPMFdmE6u7nBhSx-5" target="cChP4VPMFdmE6u7nBhSx-7">
          <mxGeometry relative="1" as="geometry" />
        </mxCell>
        <mxCell id="cChP4VPMFdmE6u7nBhSx-5" value="게시판 보기" style="rounded=1;whiteSpace=wrap;html=1;arcSize=40;fontColor=#000000;fillColor=#ffffc0;strokeColor=#ff0000;fontStyle=1" vertex="1" parent="1">
          <mxGeometry x="160" y="584.5" width="120" height="40" as="geometry" />
        </mxCell>
        <mxCell id="cChP4VPMFdmE6u7nBhSx-19" style="rounded=0;orthogonalLoop=1;jettySize=auto;html=1;endArrow=none;endFill=0;" edge="1" parent="1" source="cChP4VPMFdmE6u7nBhSx-6">
          <mxGeometry relative="1" as="geometry">
            <mxPoint x="60" y="450" as="targetPoint" />
          </mxGeometry>
        </mxCell>
        <mxCell id="cChP4VPMFdmE6u7nBhSx-23" style="rounded=0;orthogonalLoop=1;jettySize=auto;html=1;entryX=0.5;entryY=1;entryDx=0;entryDy=0;exitX=0.839;exitY=-0.015;exitDx=0;exitDy=0;exitPerimeter=0;dashed=1;" edge="1" parent="1" source="cChP4VPMFdmE6u7nBhSx-6" target="cChP4VPMFdmE6u7nBhSx-7">
          <mxGeometry relative="1" as="geometry" />
        </mxCell>
        <mxCell id="cChP4VPMFdmE6u7nBhSx-6" value="게시글 보기" style="rounded=1;whiteSpace=wrap;html=1;arcSize=40;fontColor=#000000;fillColor=#ffffc0;strokeColor=#ff0000;fontStyle=1" vertex="1" parent="1">
          <mxGeometry x="160" y="750" width="120" height="40" as="geometry" />
        </mxCell>
        <mxCell id="cChP4VPMFdmE6u7nBhSx-17" style="rounded=0;orthogonalLoop=1;jettySize=auto;html=1;exitX=0;exitY=0.5;exitDx=0;exitDy=0;endArrow=none;endFill=0;entryX=1;entryY=0.3333333333333333;entryDx=0;entryDy=0;entryPerimeter=0;" edge="1" parent="1" source="cChP4VPMFdmE6u7nBhSx-7" target="cChP4VPMFdmE6u7nBhSx-1">
          <mxGeometry relative="1" as="geometry">
            <mxPoint x="60" y="470" as="targetPoint" />
          </mxGeometry>
        </mxCell>
        <mxCell id="cChP4VPMFdmE6u7nBhSx-20" value="&amp;lt;&amp;lt;include&amp;gt;&amp;gt;" style="edgeStyle=orthogonalEdgeStyle;rounded=0;orthogonalLoop=1;jettySize=auto;html=1;entryX=0;entryY=0.5;entryDx=0;entryDy=0;endArrow=classic;endFill=1;dashed=1;" edge="1" parent="1" source="cChP4VPMFdmE6u7nBhSx-7" target="cChP4VPMFdmE6u7nBhSx-8">
          <mxGeometry relative="1" as="geometry" />
        </mxCell>
        <mxCell id="cChP4VPMFdmE6u7nBhSx-7" value="회원 로그인" style="rounded=1;whiteSpace=wrap;html=1;arcSize=40;fontColor=#000000;fillColor=#ffffc0;strokeColor=#ff0000;fontStyle=1" vertex="1" parent="1">
          <mxGeometry x="320" y="320" width="120" height="40" as="geometry" />
        </mxCell>
        <mxCell id="cChP4VPMFdmE6u7nBhSx-8" value="인증(SNS 등)" style="rounded=1;whiteSpace=wrap;html=1;arcSize=40;fontColor=#000000;fillColor=#ffffc0;strokeColor=#ff0000;fontStyle=1" vertex="1" parent="1">
          <mxGeometry x="540" y="320" width="120" height="40" as="geometry" />
        </mxCell>
        <mxCell id="cChP4VPMFdmE6u7nBhSx-21" value="&amp;lt;&amp;lt;extend&amp;gt;&amp;gt;" style="rounded=0;orthogonalLoop=1;jettySize=auto;html=1;entryX=1;entryY=0.5;entryDx=0;entryDy=0;exitX=0;exitY=0.5;exitDx=0;exitDy=0;dashed=1;" edge="1" parent="1" source="cChP4VPMFdmE6u7nBhSx-9" target="cChP4VPMFdmE6u7nBhSx-7">
          <mxGeometry relative="1" as="geometry" />
        </mxCell>
        <mxCell id="cChP4VPMFdmE6u7nBhSx-9" value="로그인 실패" style="rounded=1;whiteSpace=wrap;html=1;arcSize=40;fontColor=#000000;fillColor=#ffffc0;strokeColor=#ff0000;fontStyle=1" vertex="1" parent="1">
          <mxGeometry x="540" y="400" width="120" height="40" as="geometry" />
        </mxCell>
        <mxCell id="cChP4VPMFdmE6u7nBhSx-25" style="rounded=0;orthogonalLoop=1;jettySize=auto;html=1;entryX=1;entryY=0.5;entryDx=0;entryDy=0;dashed=1;" edge="1" parent="1" source="cChP4VPMFdmE6u7nBhSx-10" target="cChP4VPMFdmE6u7nBhSx-5">
          <mxGeometry relative="1" as="geometry" />
        </mxCell>
        <mxCell id="cChP4VPMFdmE6u7nBhSx-10" value="게시판 정렬" style="rounded=1;whiteSpace=wrap;html=1;arcSize=40;fontColor=#000000;fillColor=#ffffc0;strokeColor=#ff0000;fontStyle=1" vertex="1" parent="1">
          <mxGeometry x="380" y="585" width="120" height="40" as="geometry" />
        </mxCell>
        <mxCell id="cChP4VPMFdmE6u7nBhSx-26" style="rounded=0;orthogonalLoop=1;jettySize=auto;html=1;entryX=1;entryY=0.5;entryDx=0;entryDy=0;dashed=1;" edge="1" parent="1" source="cChP4VPMFdmE6u7nBhSx-11" target="cChP4VPMFdmE6u7nBhSx-5">
          <mxGeometry relative="1" as="geometry" />
        </mxCell>
        <mxCell id="cChP4VPMFdmE6u7nBhSx-11" value="게시판 검색" style="rounded=1;whiteSpace=wrap;html=1;arcSize=40;fontColor=#000000;fillColor=#ffffc0;strokeColor=#ff0000;fontStyle=1" vertex="1" parent="1">
          <mxGeometry x="380" y="670" width="120" height="40" as="geometry" />
        </mxCell>
        <mxCell id="cChP4VPMFdmE6u7nBhSx-27" style="rounded=0;orthogonalLoop=1;jettySize=auto;html=1;entryX=1;entryY=0.5;entryDx=0;entryDy=0;dashed=1;" edge="1" parent="1" source="cChP4VPMFdmE6u7nBhSx-12" target="cChP4VPMFdmE6u7nBhSx-6">
          <mxGeometry relative="1" as="geometry" />
        </mxCell>
        <mxCell id="cChP4VPMFdmE6u7nBhSx-12" value="게시글 &lt;br&gt;쓰기, 수정, 삭제" style="rounded=1;whiteSpace=wrap;html=1;arcSize=40;fontColor=#000000;fillColor=#ffffc0;strokeColor=#ff0000;fontStyle=1" vertex="1" parent="1">
          <mxGeometry x="380" y="750" width="120" height="40" as="geometry" />
        </mxCell>
        <mxCell id="cChP4VPMFdmE6u7nBhSx-28" style="rounded=0;orthogonalLoop=1;jettySize=auto;html=1;entryX=1;entryY=0.5;entryDx=0;entryDy=0;dashed=1;" edge="1" parent="1" source="cChP4VPMFdmE6u7nBhSx-13" target="cChP4VPMFdmE6u7nBhSx-6">
          <mxGeometry relative="1" as="geometry" />
        </mxCell>
        <mxCell id="cChP4VPMFdmE6u7nBhSx-13" value="댓글 보기, 쓰기,&lt;br&gt;수정, 삭제" style="rounded=1;whiteSpace=wrap;html=1;arcSize=40;fontColor=#000000;fillColor=#ffffc0;strokeColor=#ff0000;fontStyle=1" vertex="1" parent="1">
          <mxGeometry x="380" y="830" width="120" height="40" as="geometry" />
        </mxCell>
      </root>
    </mxGraphModel>
  </diagram>
</mxfile>
